<svg width="407" height="263" viewBox="0 0 407 263" fill="none" xmlns="http://www.w3.org/2000/svg">
<rect x="45.7397" y="46.814" width="316.261" height="168.186" rx="31" fill="#5BE9B9"/>
<rect x="125.184" y="142.92" width="162.937" height="59.3309" rx="29.6655" fill="black" fill-opacity="0.6"/>
<path d="M169.262 71.071H166.151C166.094 70.6686 165.978 70.3111 165.803 69.9986C165.628 69.6814 165.403 69.4115 165.128 69.1889C164.854 68.9664 164.536 68.7959 164.176 68.6776C163.821 68.5592 163.435 68.5 163.019 68.5C162.266 68.5 161.61 68.687 161.051 69.0611C160.493 69.4304 160.059 69.9702 159.752 70.6804C159.444 71.3859 159.29 72.2429 159.29 73.2514C159.29 74.2884 159.444 75.1596 159.752 75.8651C160.064 76.5706 160.5 77.1032 161.059 77.4631C161.617 77.8229 162.264 78.0029 162.997 78.0029C163.409 78.0029 163.791 77.9484 164.141 77.8395C164.496 77.7306 164.811 77.572 165.086 77.3637C165.36 77.1506 165.587 76.8925 165.767 76.5895C165.952 76.2865 166.08 75.9408 166.151 75.5526L169.262 75.5668C169.181 76.2344 168.98 76.8783 168.658 77.4986C168.341 78.1141 167.912 78.6657 167.372 79.1534C166.837 79.6364 166.198 80.0199 165.455 80.304C164.716 80.5834 163.881 80.723 162.948 80.723C161.65 80.723 160.49 80.4295 159.468 79.8424C158.45 79.2552 157.645 78.4053 157.053 77.2926C156.466 76.1799 156.172 74.8329 156.172 73.2514C156.172 71.6653 156.47 70.3158 157.067 69.2031C157.664 68.0905 158.473 67.2429 159.496 66.6605C160.519 66.0734 161.669 65.7799 162.948 65.7799C163.791 65.7799 164.572 65.8982 165.292 66.135C166.016 66.3717 166.658 66.7174 167.216 67.1719C167.775 67.6217 168.229 68.1733 168.58 68.8267C168.935 69.4801 169.162 70.2282 169.262 71.071ZM174.436 74.2174V80.5242H171.41V65.9787H174.35V71.5398H174.478C174.725 70.8959 175.122 70.3916 175.671 70.027C176.221 69.6577 176.91 69.473 177.738 69.473C178.496 69.473 179.156 69.6388 179.72 69.9702C180.288 70.2969 180.728 70.768 181.041 71.3835C181.358 71.9943 181.514 72.7259 181.51 73.5781V80.5242H178.484V74.1179C178.489 73.4456 178.318 72.9224 177.973 72.5483C177.632 72.1743 177.153 71.9872 176.538 71.9872C176.126 71.9872 175.761 72.0748 175.444 72.25C175.132 72.4252 174.885 72.6809 174.706 73.0171C174.53 73.3485 174.44 73.7486 174.436 74.2174ZM188.862 80.7372C187.74 80.7372 186.774 80.51 185.964 80.0554C185.16 79.5961 184.539 78.9475 184.104 78.1094C183.668 77.2666 183.45 76.2699 183.45 75.1193C183.45 73.9972 183.668 73.0123 184.104 72.1648C184.539 71.3173 185.152 70.6567 185.943 70.1833C186.739 69.7098 187.671 69.473 188.741 69.473C189.461 69.473 190.131 69.589 190.751 69.821C191.376 70.0483 191.921 70.3916 192.385 70.8509C192.854 71.3102 193.218 71.8878 193.479 72.5838C193.739 73.2751 193.869 74.0848 193.869 75.0128V75.8438H184.658V73.9688H191.021C191.021 73.5332 190.927 73.1473 190.737 72.8111C190.548 72.4749 190.285 72.2121 189.949 72.0227C189.617 71.8286 189.231 71.7316 188.791 71.7316C188.332 71.7316 187.925 71.8381 187.57 72.0512C187.219 72.2595 186.945 72.5412 186.746 72.8963C186.547 73.2467 186.445 73.6373 186.44 74.0682V75.8509C186.44 76.3906 186.54 76.857 186.739 77.25C186.942 77.643 187.229 77.946 187.598 78.1591C187.967 78.3722 188.405 78.4787 188.912 78.4787C189.248 78.4787 189.556 78.4314 189.835 78.3367C190.115 78.242 190.354 78.0999 190.553 77.9105C190.751 77.7211 190.903 77.4891 191.007 77.2145L193.805 77.3992C193.663 78.0715 193.372 78.6586 192.932 79.1605C192.496 79.6577 191.933 80.046 191.241 80.3253C190.555 80.5999 189.762 80.7372 188.862 80.7372ZM200.773 80.7372C199.655 80.7372 198.694 80.5005 197.889 80.027C197.089 79.5488 196.473 78.8859 196.043 78.0384C195.616 77.1908 195.403 76.2155 195.403 75.1122C195.403 73.9948 195.619 73.0147 196.05 72.1719C196.485 71.3244 197.103 70.6638 197.903 70.1904C198.704 69.7121 199.655 69.473 200.758 69.473C201.71 69.473 202.544 69.6459 203.258 69.9915C203.973 70.3371 204.539 70.8225 204.956 71.4475C205.373 72.0725 205.602 72.8064 205.645 73.6492H202.79C202.709 73.1047 202.496 72.6667 202.151 72.3352C201.81 71.9991 201.362 71.831 200.808 71.831C200.339 71.831 199.93 71.9588 199.58 72.2145C199.234 72.4655 198.964 72.8324 198.77 73.3154C198.576 73.7983 198.479 74.3831 198.479 75.0696C198.479 75.7656 198.573 76.3575 198.763 76.8452C198.957 77.3329 199.229 77.7046 199.58 77.9602C199.93 78.2159 200.339 78.3438 200.808 78.3438C201.154 78.3438 201.464 78.2727 201.739 78.1307C202.018 77.9887 202.248 77.7827 202.428 77.5128C202.612 77.2382 202.733 76.9091 202.79 76.5256H205.645C205.597 77.3589 205.37 78.0928 204.963 78.7273C204.561 79.357 204.004 79.8495 203.294 80.2046C202.584 80.5597 201.743 80.7372 200.773 80.7372ZM210.323 77.385L210.331 73.7557H210.771L214.265 69.6151H217.738L213.044 75.098H212.326L210.323 77.385ZM207.582 80.5242V65.9787H210.608V80.5242H207.582ZM214.4 80.5242L211.19 75.7727L213.207 73.635L217.944 80.5242H214.4ZM223.702 80.7372C222.599 80.7372 221.645 80.5029 220.84 80.0341C220.04 79.5606 219.422 78.9025 218.986 78.0597C218.551 77.2121 218.333 76.2297 218.333 75.1122C218.333 73.9853 218.551 73.0005 218.986 72.1577C219.422 71.3102 220.04 70.652 220.84 70.1833C221.645 69.7098 222.599 69.473 223.702 69.473C224.806 69.473 225.757 69.7098 226.557 70.1833C227.362 70.652 227.983 71.3102 228.418 72.1577C228.854 73.0005 229.072 73.9853 229.072 75.1122C229.072 76.2297 228.854 77.2121 228.418 78.0597C227.983 78.9025 227.362 79.5606 226.557 80.0341C225.757 80.5029 224.806 80.7372 223.702 80.7372ZM223.717 78.3935C224.218 78.3935 224.638 78.2514 224.974 77.9674C225.31 77.6785 225.563 77.2855 225.734 76.7884C225.909 76.2912 225.996 75.7254 225.996 75.0909C225.996 74.4565 225.909 73.8906 225.734 73.3935C225.563 72.8963 225.31 72.5033 224.974 72.2145C224.638 71.9257 224.218 71.7813 223.717 71.7813C223.21 71.7813 222.784 71.9257 222.438 72.2145C222.097 72.5033 221.839 72.8963 221.664 73.3935C221.494 73.8906 221.408 74.4565 221.408 75.0909C221.408 75.7254 221.494 76.2912 221.664 76.7884C221.839 77.2855 222.097 77.6785 222.438 77.9674C222.784 78.2514 223.21 78.3935 223.717 78.3935ZM238.035 75.8793V69.6151H241.06V80.5242H238.155V78.5426H238.042C237.796 79.1818 237.386 79.6956 236.813 80.0838C236.245 80.4721 235.551 80.6662 234.732 80.6662C234.003 80.6662 233.361 80.5005 232.807 80.1691C232.254 79.8376 231.82 79.3665 231.508 78.7557C231.2 78.1449 231.044 77.4134 231.039 76.5611V69.6151H234.065V76.0213C234.069 76.6653 234.242 77.1743 234.583 77.5483C234.924 77.9224 235.381 78.1094 235.954 78.1094C236.318 78.1094 236.659 78.0265 236.977 77.8608C237.294 77.6904 237.549 77.4394 237.744 77.108C237.942 76.7765 238.039 76.367 238.035 75.8793ZM249.283 69.6151V71.8878H242.713V69.6151H249.283ZM244.205 67.0014H247.23V77.1719C247.23 77.4513 247.273 77.6691 247.358 77.8253C247.443 77.9768 247.562 78.0834 247.713 78.1449C247.87 78.2065 248.05 78.2372 248.253 78.2372C248.395 78.2372 248.537 78.2254 248.679 78.2017C248.821 78.1733 248.93 78.152 249.006 78.1378L249.482 80.3892C249.33 80.4366 249.117 80.491 248.843 80.5526C248.568 80.6189 248.234 80.6591 247.841 80.6733C247.112 80.7017 246.473 80.6047 245.924 80.3821C245.379 80.1596 244.955 79.8139 244.652 79.3452C244.349 78.8764 244.2 78.2846 244.205 77.5696V67.0014ZM54.6647 111.512V108.342H69.5973V111.512H64.0309V126.524H60.2311V111.512H54.6647ZM75.7674 118.641V126.524H71.9854V108.342H75.6608V115.294H75.8206C76.1284 114.489 76.6256 113.858 77.3121 113.403C77.9987 112.941 78.8598 112.71 79.8956 112.71C80.8425 112.71 81.6682 112.917 82.3725 113.332C83.0827 113.74 83.6331 114.329 84.0238 115.098C84.4203 115.862 84.6156 116.776 84.6097 117.842V126.524H80.8277V118.516C80.8336 117.676 80.6206 117.022 80.1885 116.554C79.7624 116.087 79.1646 115.853 78.3952 115.853C77.8803 115.853 77.4246 115.962 77.028 116.181C76.6374 116.4 76.3296 116.72 76.1047 117.14C75.8857 117.555 75.7733 118.055 75.7674 118.641ZM93.8005 126.791C92.3978 126.791 91.1904 126.506 90.1783 125.938C89.1722 125.364 88.3968 124.553 87.8523 123.506C87.3078 122.452 87.0356 121.206 87.0356 119.768C87.0356 118.365 87.3078 117.134 87.8523 116.075C88.3968 115.016 89.1633 114.19 90.1517 113.598C91.146 113.006 92.312 112.71 93.6496 112.71C94.5492 112.71 95.3866 112.855 96.162 113.145C96.9432 113.429 97.6239 113.858 98.2039 114.433C98.7898 115.007 99.2455 115.729 99.5711 116.599C99.8966 117.463 100.059 118.475 100.059 119.635V120.674H88.5448V118.33H96.4993C96.4993 117.785 96.381 117.303 96.1442 116.883C95.9075 116.463 95.579 116.134 95.1588 115.897C94.7445 115.655 94.2621 115.533 93.7117 115.533C93.1376 115.533 92.6286 115.667 92.1847 115.933C91.7467 116.193 91.4035 116.545 91.1549 116.989C90.9063 117.427 90.779 117.916 90.7731 118.454V120.683C90.7731 121.357 90.8974 121.94 91.146 122.431C91.4005 122.923 91.7586 123.302 92.2202 123.568C92.6819 123.834 93.2293 123.967 93.8626 123.967C94.2828 123.967 94.6675 123.908 95.0167 123.79C95.3659 123.671 95.6648 123.494 95.9134 123.257C96.162 123.02 96.3514 122.73 96.4816 122.387L99.9795 122.618C99.8019 123.458 99.4379 124.192 98.8875 124.82C98.343 125.441 97.6387 125.926 96.7746 126.276C95.9164 126.619 94.925 126.791 93.8005 126.791ZM118.248 113.571C118.177 112.855 117.872 112.299 117.333 111.902C116.795 111.506 116.064 111.308 115.141 111.308C114.513 111.308 113.984 111.396 113.551 111.574C113.119 111.746 112.788 111.985 112.557 112.293C112.332 112.601 112.22 112.95 112.22 113.341C112.208 113.666 112.276 113.95 112.424 114.193C112.578 114.436 112.788 114.646 113.054 114.823C113.321 114.995 113.628 115.146 113.978 115.276C114.327 115.4 114.7 115.507 115.096 115.596L116.73 115.986C117.523 116.164 118.251 116.4 118.914 116.696C119.577 116.992 120.151 117.356 120.636 117.788C121.121 118.22 121.497 118.729 121.763 119.315C122.036 119.901 122.175 120.573 122.181 121.331C122.175 122.443 121.891 123.408 121.328 124.225C120.772 125.036 119.967 125.666 118.914 126.116C117.866 126.56 116.602 126.782 115.123 126.782C113.655 126.782 112.377 126.557 111.288 126.107C110.205 125.657 109.358 124.991 108.749 124.109C108.145 123.222 107.828 122.124 107.799 120.816H111.518C111.56 121.425 111.734 121.934 112.042 122.343C112.356 122.745 112.773 123.05 113.294 123.257C113.821 123.458 114.416 123.559 115.078 123.559C115.729 123.559 116.295 123.464 116.774 123.275C117.259 123.085 117.635 122.822 117.902 122.485C118.168 122.147 118.301 121.76 118.301 121.322C118.301 120.913 118.18 120.57 117.937 120.292C117.7 120.014 117.351 119.777 116.89 119.582C116.434 119.386 115.874 119.209 115.212 119.049L113.232 118.552C111.699 118.179 110.489 117.596 109.601 116.803C108.713 116.01 108.272 114.942 108.278 113.598C108.272 112.497 108.565 111.535 109.157 110.713C109.755 109.89 110.574 109.248 111.616 108.786C112.658 108.325 113.841 108.094 115.167 108.094C116.517 108.094 117.694 108.325 118.701 108.786C119.713 109.248 120.5 109.89 121.062 110.713C121.624 111.535 121.914 112.488 121.932 113.571H118.248ZM130.857 126.791C129.478 126.791 128.285 126.498 127.279 125.912C126.279 125.32 125.506 124.497 124.962 123.444C124.417 122.384 124.145 121.156 124.145 119.759C124.145 118.351 124.417 117.12 124.962 116.066C125.506 115.007 126.279 114.184 127.279 113.598C128.285 113.006 129.478 112.71 130.857 112.71C132.236 112.71 133.425 113.006 134.425 113.598C135.432 114.184 136.207 115.007 136.751 116.066C137.296 117.12 137.568 118.351 137.568 119.759C137.568 121.156 137.296 122.384 136.751 123.444C136.207 124.497 135.432 125.32 134.425 125.912C133.425 126.498 132.236 126.791 130.857 126.791ZM130.874 123.861C131.502 123.861 132.025 123.683 132.446 123.328C132.866 122.967 133.183 122.476 133.396 121.854C133.615 121.233 133.724 120.526 133.724 119.733C133.724 118.94 133.615 118.232 133.396 117.611C133.183 116.989 132.866 116.498 132.446 116.137C132.025 115.776 131.502 115.596 130.874 115.596C130.241 115.596 129.708 115.776 129.276 116.137C128.85 116.498 128.528 116.989 128.309 117.611C128.096 118.232 127.989 118.94 127.989 119.733C127.989 120.526 128.096 121.233 128.309 121.854C128.528 122.476 128.85 122.967 129.276 123.328C129.708 123.683 130.241 123.861 130.874 123.861ZM147.36 112.888V115.729H138.944V112.888H147.36ZM140.871 126.524V111.902C140.871 110.914 141.063 110.094 141.448 109.443C141.838 108.792 142.371 108.304 143.046 107.978C143.721 107.653 144.487 107.49 145.345 107.49C145.925 107.49 146.455 107.534 146.934 107.623C147.42 107.712 147.781 107.792 148.017 107.863L147.343 110.704C147.195 110.657 147.011 110.612 146.792 110.571C146.579 110.529 146.36 110.509 146.135 110.509C145.579 110.509 145.191 110.639 144.972 110.899C144.753 111.154 144.644 111.512 144.644 111.973V126.524H140.871ZM156.924 112.888V115.729H148.712V112.888H156.924ZM150.576 109.621H154.358V122.334C154.358 122.683 154.412 122.955 154.518 123.151C154.625 123.34 154.773 123.473 154.962 123.55C155.157 123.627 155.382 123.666 155.637 123.666C155.814 123.666 155.992 123.651 156.17 123.621C156.347 123.586 156.483 123.559 156.578 123.541L157.173 126.355C156.983 126.415 156.717 126.483 156.374 126.56C156.03 126.643 155.613 126.693 155.122 126.711C154.21 126.746 153.411 126.625 152.725 126.347C152.044 126.068 151.515 125.636 151.136 125.05C150.757 124.465 150.571 123.725 150.576 122.831V109.621ZM162.078 126.524L158.367 112.888H162.193L164.306 122.05H164.43L166.632 112.888H170.387L172.625 121.996H172.74L174.817 112.888H178.635L174.933 126.524H170.929L168.585 117.948H168.417L166.073 126.524H162.078ZM184.541 126.782C183.671 126.782 182.896 126.631 182.215 126.329C181.534 126.021 180.996 125.568 180.599 124.971C180.208 124.367 180.013 123.615 180.013 122.716C180.013 121.958 180.152 121.322 180.43 120.807C180.709 120.292 181.087 119.878 181.567 119.564C182.046 119.25 182.591 119.014 183.2 118.854C183.816 118.694 184.461 118.581 185.136 118.516C185.929 118.433 186.568 118.357 187.053 118.286C187.539 118.209 187.891 118.096 188.11 117.948C188.329 117.8 188.438 117.581 188.438 117.291V117.238C188.438 116.676 188.261 116.241 187.906 115.933C187.556 115.625 187.059 115.471 186.414 115.471C185.733 115.471 185.192 115.622 184.789 115.924C184.387 116.22 184.121 116.593 183.99 117.043L180.493 116.759C180.67 115.93 181.019 115.214 181.54 114.61C182.061 114 182.733 113.533 183.555 113.207C184.384 112.876 185.343 112.71 186.432 112.71C187.189 112.71 187.914 112.799 188.607 112.977C189.305 113.154 189.924 113.429 190.462 113.802C191.007 114.175 191.436 114.654 191.75 115.24C192.063 115.82 192.22 116.516 192.22 117.327V126.524H188.634V124.633H188.527C188.308 125.059 188.015 125.435 187.648 125.761C187.281 126.08 186.84 126.332 186.325 126.515C185.81 126.693 185.216 126.782 184.541 126.782ZM185.624 124.172C186.18 124.172 186.672 124.062 187.098 123.843C187.524 123.618 187.858 123.316 188.101 122.938C188.344 122.559 188.465 122.13 188.465 121.65V120.203C188.347 120.28 188.184 120.351 187.977 120.416C187.775 120.475 187.548 120.532 187.293 120.585C187.039 120.632 186.784 120.677 186.53 120.718C186.275 120.754 186.044 120.786 185.837 120.816C185.393 120.881 185.005 120.984 184.674 121.126C184.343 121.268 184.085 121.461 183.902 121.704C183.718 121.94 183.626 122.236 183.626 122.591C183.626 123.106 183.813 123.5 184.186 123.772C184.565 124.038 185.044 124.172 185.624 124.172ZM195.154 126.524V112.888H198.821V115.267H198.963C199.212 114.421 199.629 113.782 200.215 113.349C200.801 112.911 201.475 112.692 202.239 112.692C202.428 112.692 202.632 112.704 202.851 112.728C203.07 112.752 203.263 112.784 203.428 112.826V116.181C203.251 116.128 203.005 116.081 202.692 116.039C202.378 115.998 202.091 115.977 201.83 115.977C201.274 115.977 200.777 116.099 200.339 116.341C199.907 116.578 199.564 116.909 199.309 117.336C199.061 117.762 198.936 118.253 198.936 118.809V126.524H195.154ZM210.964 126.791C209.561 126.791 208.353 126.506 207.341 125.938C206.335 125.364 205.56 124.553 205.015 123.506C204.471 122.452 204.199 121.206 204.199 119.768C204.199 118.365 204.471 117.134 205.015 116.075C205.56 115.016 206.326 114.19 207.315 113.598C208.309 113.006 209.475 112.71 210.813 112.71C211.712 112.71 212.55 112.855 213.325 113.145C214.106 113.429 214.787 113.858 215.367 114.433C215.953 115.007 216.409 115.729 216.734 116.599C217.06 117.463 217.222 118.475 217.222 119.635V120.674H205.708V118.33H213.662C213.662 117.785 213.544 117.303 213.307 116.883C213.071 116.463 212.742 116.134 212.322 115.897C211.908 115.655 211.425 115.533 210.875 115.533C210.301 115.533 209.792 115.667 209.348 115.933C208.91 116.193 208.567 116.545 208.318 116.989C208.069 117.427 207.942 117.916 207.936 118.454V120.683C207.936 121.357 208.061 121.94 208.309 122.431C208.564 122.923 208.922 123.302 209.383 123.568C209.845 123.834 210.392 123.967 211.026 123.967C211.446 123.967 211.831 123.908 212.18 123.79C212.529 123.671 212.828 123.494 213.076 123.257C213.325 123.02 213.514 122.73 213.645 122.387L217.143 122.618C216.965 123.458 216.601 124.192 216.051 124.82C215.506 125.441 214.802 125.926 213.938 126.276C213.079 126.619 212.088 126.791 210.964 126.791ZM231.993 126.524H225.548V108.342H232.046C233.875 108.342 235.449 108.706 236.769 109.434C238.089 110.156 239.104 111.195 239.814 112.55C240.53 113.906 240.889 115.527 240.889 117.416C240.889 119.309 240.53 120.937 239.814 122.298C239.104 123.66 238.083 124.704 236.751 125.432C235.426 126.16 233.84 126.524 231.993 126.524ZM229.392 123.23H231.833C232.97 123.23 233.925 123.029 234.701 122.627C235.482 122.218 236.068 121.588 236.458 120.736C236.855 119.878 237.053 118.771 237.053 117.416C237.053 116.072 236.855 114.974 236.458 114.122C236.068 113.27 235.485 112.642 234.71 112.24C233.934 111.837 232.978 111.636 231.842 111.636H229.392V123.23ZM249.88 126.791C248.477 126.791 247.269 126.506 246.257 125.938C245.251 125.364 244.476 124.553 243.931 123.506C243.387 122.452 243.115 121.206 243.115 119.768C243.115 118.365 243.387 117.134 243.931 116.075C244.476 115.016 245.242 114.19 246.231 113.598C247.225 113.006 248.391 112.71 249.729 112.71C250.628 112.71 251.466 112.855 252.241 113.145C253.022 113.429 253.703 113.858 254.283 114.433C254.869 115.007 255.325 115.729 255.65 116.599C255.976 117.463 256.138 118.475 256.138 119.635V120.674H244.624V118.33H252.578C252.578 117.785 252.46 117.303 252.223 116.883C251.987 116.463 251.658 116.134 251.238 115.897C250.824 115.655 250.341 115.533 249.791 115.533C249.217 115.533 248.708 115.667 248.264 115.933C247.826 116.193 247.483 116.545 247.234 116.989C246.985 117.427 246.858 117.916 246.852 118.454V120.683C246.852 121.357 246.977 121.94 247.225 122.431C247.48 122.923 247.838 123.302 248.299 123.568C248.761 123.834 249.308 123.967 249.942 123.967C250.362 123.967 250.747 123.908 251.096 123.79C251.445 123.671 251.744 123.494 251.993 123.257C252.241 123.02 252.43 122.73 252.561 122.387L256.059 122.618C255.881 123.458 255.517 124.192 254.967 124.82C254.422 125.441 253.718 125.926 252.854 126.276C251.995 126.619 251.004 126.791 249.88 126.791ZM264.821 126.791C263.418 126.791 262.211 126.506 261.199 125.938C260.193 125.364 259.417 124.553 258.873 123.506C258.328 122.452 258.056 121.206 258.056 119.768C258.056 118.365 258.328 117.134 258.873 116.075C259.417 115.016 260.184 114.19 261.172 113.598C262.167 113.006 263.332 112.71 264.67 112.71C265.57 112.71 266.407 112.855 267.182 113.145C267.964 113.429 268.644 113.858 269.224 114.433C269.81 115.007 270.266 115.729 270.592 116.599C270.917 117.463 271.08 118.475 271.08 119.635V120.674H259.565V118.33H267.52C267.52 117.785 267.401 117.303 267.165 116.883C266.928 116.463 266.6 116.134 266.179 115.897C265.765 115.655 265.283 115.533 264.732 115.533C264.158 115.533 263.649 115.667 263.205 115.933C262.767 116.193 262.424 116.545 262.175 116.989C261.927 117.427 261.8 117.916 261.794 118.454V120.683C261.794 121.357 261.918 121.94 262.167 122.431C262.421 122.923 262.779 123.302 263.241 123.568C263.702 123.834 264.25 123.967 264.883 123.967C265.303 123.967 265.688 123.908 266.037 123.79C266.386 123.671 266.685 123.494 266.934 123.257C267.182 123.02 267.372 122.73 267.502 122.387L271 122.618C270.822 123.458 270.458 124.192 269.908 124.82C269.363 125.441 268.659 125.926 267.795 126.276C266.937 126.619 265.946 126.791 264.821 126.791ZM273.548 131.638V112.888H277.277V115.178H277.445C277.611 114.811 277.851 114.438 278.164 114.06C278.484 113.675 278.898 113.355 279.407 113.101C279.922 112.84 280.561 112.71 281.325 112.71C282.319 112.71 283.237 112.971 284.077 113.491C284.917 114.006 285.589 114.785 286.092 115.826C286.595 116.862 286.847 118.161 286.847 119.724C286.847 121.245 286.601 122.529 286.11 123.577C285.625 124.618 284.962 125.409 284.121 125.947C283.287 126.48 282.352 126.746 281.316 126.746C280.582 126.746 279.958 126.625 279.443 126.382C278.934 126.139 278.517 125.835 278.191 125.468C277.865 125.095 277.617 124.719 277.445 124.34H277.33V131.638H273.548ZM277.25 119.706C277.25 120.517 277.362 121.224 277.587 121.828C277.812 122.431 278.138 122.902 278.564 123.239C278.99 123.571 279.508 123.737 280.118 123.737C280.733 123.737 281.254 123.568 281.68 123.23C282.106 122.887 282.429 122.414 282.648 121.81C282.873 121.2 282.985 120.499 282.985 119.706C282.985 118.919 282.876 118.226 282.657 117.629C282.438 117.031 282.115 116.563 281.689 116.226C281.263 115.889 280.739 115.72 280.118 115.72C279.502 115.72 278.981 115.883 278.555 116.208C278.135 116.534 277.812 116.995 277.587 117.593C277.362 118.191 277.25 118.895 277.25 119.706ZM297.864 117.558V120.558H289.572V117.558H297.864ZM306.112 126.746C305.076 126.746 304.138 126.48 303.298 125.947C302.463 125.409 301.8 124.618 301.309 123.577C300.824 122.529 300.581 121.245 300.581 119.724C300.581 118.161 300.832 116.862 301.336 115.826C301.839 114.785 302.507 114.006 303.342 113.491C304.182 112.971 305.103 112.71 306.103 112.71C306.866 112.71 307.503 112.84 308.012 113.101C308.527 113.355 308.941 113.675 309.255 114.06C309.574 114.438 309.817 114.811 309.983 115.178H310.098V108.342H313.871V126.524H310.142V124.34H309.983C309.805 124.719 309.553 125.095 309.228 125.468C308.908 125.835 308.491 126.139 307.976 126.382C307.467 126.625 306.846 126.746 306.112 126.746ZM307.31 123.737C307.92 123.737 308.435 123.571 308.855 123.239C309.281 122.902 309.607 122.431 309.832 121.828C310.062 121.224 310.178 120.517 310.178 119.706C310.178 118.895 310.065 118.191 309.841 117.593C309.616 116.995 309.29 116.534 308.864 116.208C308.438 115.883 307.92 115.72 307.31 115.72C306.689 115.72 306.165 115.889 305.739 116.226C305.313 116.563 304.99 117.031 304.771 117.629C304.552 118.226 304.443 118.919 304.443 119.706C304.443 120.499 304.552 121.2 304.771 121.81C304.996 122.414 305.319 122.887 305.739 123.23C306.165 123.568 306.689 123.737 307.31 123.737ZM316.981 126.524V112.888H320.762V126.524H316.981ZM318.88 111.13C318.318 111.13 317.836 110.944 317.433 110.571C317.037 110.192 316.838 109.739 316.838 109.212C316.838 108.692 317.037 108.245 317.433 107.872C317.836 107.493 318.318 107.304 318.88 107.304C319.443 107.304 319.922 107.493 320.319 107.872C320.721 108.245 320.922 108.692 320.922 109.212C320.922 109.739 320.721 110.192 320.319 110.571C319.922 110.944 319.443 111.13 318.88 111.13ZM336.505 112.888L331.738 126.524H327.476L322.709 112.888H326.704L329.536 122.645H329.678L332.501 112.888H336.505ZM344.216 126.791C342.813 126.791 341.605 126.506 340.593 125.938C339.587 125.364 338.812 124.553 338.267 123.506C337.723 122.452 337.451 121.206 337.451 119.768C337.451 118.365 337.723 117.134 338.267 116.075C338.812 115.016 339.578 114.19 340.567 113.598C341.561 113.006 342.727 112.71 344.065 112.71C344.964 112.71 345.802 112.855 346.577 113.145C347.358 113.429 348.039 113.858 348.619 114.433C349.205 115.007 349.661 115.729 349.986 116.599C350.312 117.463 350.474 118.475 350.474 119.635V120.674H338.96V118.33H346.914C346.914 117.785 346.796 117.303 346.559 116.883C346.323 116.463 345.994 116.134 345.574 115.897C345.16 115.655 344.677 115.533 344.127 115.533C343.553 115.533 343.044 115.667 342.6 115.933C342.162 116.193 341.818 116.545 341.57 116.989C341.321 117.427 341.194 117.916 341.188 118.454V120.683C341.188 121.357 341.312 121.94 341.561 122.431C341.816 122.923 342.174 123.302 342.635 123.568C343.097 123.834 343.644 123.967 344.278 123.967C344.698 123.967 345.083 123.908 345.432 123.79C345.781 123.671 346.08 123.494 346.328 123.257C346.577 123.02 346.766 122.73 346.897 122.387L350.394 122.618C350.217 123.458 349.853 124.192 349.303 124.82C348.758 125.441 348.054 125.926 347.19 126.276C346.331 126.619 345.34 126.791 344.216 126.791Z" fill="black"/>
<path d="M142.598 180V165.454H148.337C149.435 165.454 150.373 165.651 151.149 166.044C151.931 166.432 152.525 166.984 152.932 167.699C153.344 168.409 153.55 169.245 153.55 170.206C153.55 171.172 153.342 172.003 152.925 172.699C152.508 173.39 151.904 173.92 151.114 174.29C150.328 174.659 149.376 174.844 148.259 174.844H144.416V172.372H147.761C148.349 172.372 148.836 172.292 149.225 172.131C149.613 171.97 149.902 171.728 150.091 171.406C150.285 171.084 150.382 170.684 150.382 170.206C150.382 169.723 150.285 169.316 150.091 168.984C149.902 168.653 149.61 168.402 149.217 168.231C148.829 168.056 148.339 167.969 147.747 167.969H145.673V180H142.598ZM150.453 173.381L154.068 180H150.673L147.136 173.381H150.453ZM160.462 180.213C159.34 180.213 158.374 179.986 157.564 179.531C156.759 179.072 156.139 178.423 155.704 177.585C155.268 176.742 155.05 175.746 155.05 174.595C155.05 173.473 155.268 172.488 155.704 171.641C156.139 170.793 156.752 170.132 157.543 169.659C158.339 169.185 159.271 168.949 160.341 168.949C161.061 168.949 161.731 169.065 162.351 169.297C162.976 169.524 163.521 169.867 163.985 170.327C164.454 170.786 164.818 171.364 165.079 172.06C165.339 172.751 165.469 173.56 165.469 174.489V175.319H156.258V173.444H162.621C162.621 173.009 162.527 172.623 162.337 172.287C162.148 171.951 161.885 171.688 161.549 171.498C161.217 171.304 160.831 171.207 160.391 171.207C159.932 171.207 159.525 171.314 159.17 171.527C158.819 171.735 158.545 172.017 158.346 172.372C158.147 172.722 158.045 173.113 158.04 173.544V175.327C158.04 175.866 158.14 176.333 158.339 176.726C158.542 177.119 158.829 177.422 159.198 177.635C159.567 177.848 160.005 177.954 160.512 177.954C160.848 177.954 161.156 177.907 161.435 177.812C161.714 177.718 161.954 177.576 162.152 177.386C162.351 177.197 162.503 176.965 162.607 176.69L165.405 176.875C165.263 177.547 164.972 178.134 164.532 178.636C164.096 179.133 163.533 179.522 162.841 179.801C162.155 180.076 161.362 180.213 160.462 180.213ZM170.554 180.206C169.858 180.206 169.238 180.085 168.694 179.844C168.149 179.597 167.718 179.235 167.401 178.757C167.089 178.274 166.932 177.673 166.932 176.953C166.932 176.347 167.044 175.838 167.266 175.426C167.489 175.014 167.792 174.683 168.175 174.432C168.559 174.181 168.994 173.991 169.482 173.864C169.974 173.736 170.491 173.646 171.03 173.594C171.665 173.527 172.176 173.466 172.564 173.409C172.953 173.347 173.234 173.257 173.41 173.139C173.585 173.021 173.672 172.846 173.672 172.614V172.571C173.672 172.121 173.53 171.773 173.246 171.527C172.967 171.281 172.569 171.158 172.053 171.158C171.509 171.158 171.075 171.278 170.753 171.52C170.431 171.757 170.218 172.055 170.114 172.415L167.316 172.187C167.458 171.524 167.737 170.952 168.154 170.469C168.571 169.981 169.108 169.607 169.766 169.346C170.429 169.081 171.196 168.949 172.067 168.949C172.673 168.949 173.253 169.02 173.807 169.162C174.366 169.304 174.861 169.524 175.292 169.822C175.727 170.121 176.071 170.504 176.322 170.973C176.572 171.437 176.698 171.993 176.698 172.642V180H173.829V178.487H173.743C173.568 178.828 173.334 179.129 173.04 179.389C172.747 179.645 172.394 179.846 171.982 179.993C171.57 180.135 171.094 180.206 170.554 180.206ZM171.421 178.118C171.866 178.118 172.259 178.03 172.6 177.855C172.941 177.675 173.208 177.434 173.402 177.131C173.597 176.828 173.694 176.484 173.694 176.101V174.943C173.599 175.005 173.469 175.061 173.303 175.114C173.142 175.161 172.96 175.206 172.756 175.248C172.553 175.286 172.349 175.322 172.145 175.355C171.942 175.383 171.757 175.409 171.591 175.433C171.236 175.485 170.926 175.568 170.661 175.682C170.396 175.795 170.19 175.949 170.043 176.143C169.896 176.333 169.823 176.569 169.823 176.854C169.823 177.266 169.972 177.58 170.27 177.798C170.573 178.011 170.957 178.118 171.421 178.118ZM183.065 180.177C182.237 180.177 181.486 179.964 180.814 179.538C180.146 179.107 179.616 178.475 179.223 177.642C178.835 176.804 178.64 175.776 178.64 174.56C178.64 173.31 178.842 172.27 179.244 171.442C179.647 170.608 180.182 169.986 180.849 169.574C181.522 169.157 182.258 168.949 183.058 168.949C183.669 168.949 184.178 169.053 184.585 169.261C184.997 169.465 185.328 169.721 185.579 170.028C185.835 170.331 186.029 170.63 186.162 170.923H186.254V165.454H189.272V180H186.29V178.253H186.162C186.02 178.556 185.818 178.856 185.558 179.155C185.302 179.448 184.969 179.692 184.557 179.886C184.149 180.08 183.652 180.177 183.065 180.177ZM184.024 177.77C184.512 177.77 184.924 177.637 185.26 177.372C185.601 177.102 185.861 176.726 186.041 176.243C186.226 175.76 186.318 175.194 186.318 174.545C186.318 173.897 186.228 173.333 186.048 172.855C185.868 172.377 185.608 172.007 185.267 171.747C184.926 171.487 184.512 171.356 184.024 171.356C183.527 171.356 183.108 171.491 182.767 171.761C182.426 172.031 182.168 172.405 181.993 172.883C181.817 173.362 181.73 173.916 181.73 174.545C181.73 175.18 181.817 175.741 181.993 176.229C182.173 176.712 182.431 177.09 182.767 177.365C183.108 177.635 183.527 177.77 184.024 177.77ZM198.953 180H195.657L200.679 165.454H204.642L209.656 180H206.361L202.717 168.778H202.603L198.953 180ZM198.747 174.283H206.531V176.683H198.747V174.283ZM211.35 180V169.091H214.283V170.994H214.397C214.596 170.317 214.929 169.806 215.398 169.46C215.867 169.11 216.407 168.935 217.018 168.935C217.169 168.935 217.332 168.944 217.508 168.963C217.683 168.982 217.837 169.008 217.969 169.041V171.726C217.827 171.683 217.631 171.645 217.38 171.612C217.129 171.579 216.899 171.562 216.691 171.562C216.246 171.562 215.848 171.659 215.498 171.854C215.152 172.043 214.877 172.308 214.674 172.649C214.475 172.99 214.375 173.383 214.375 173.828V180H211.35ZM225.883 169.091V171.364H219.313V169.091H225.883ZM220.805 166.477H223.83V176.648C223.83 176.927 223.873 177.145 223.958 177.301C224.043 177.453 224.162 177.559 224.313 177.621C224.47 177.682 224.65 177.713 224.853 177.713C224.995 177.713 225.137 177.701 225.279 177.677C225.421 177.649 225.53 177.628 225.606 177.614L226.082 179.865C225.93 179.912 225.717 179.967 225.443 180.028C225.168 180.095 224.834 180.135 224.441 180.149C223.712 180.177 223.073 180.08 222.524 179.858C221.979 179.635 221.555 179.29 221.252 178.821C220.949 178.352 220.8 177.76 220.805 177.045V166.477ZM227.854 180V169.091H230.879V180H227.854ZM229.374 167.685C228.924 167.685 228.538 167.535 228.216 167.237C227.899 166.934 227.74 166.572 227.74 166.15C227.74 165.734 227.899 165.376 228.216 165.078C228.538 164.775 228.924 164.623 229.374 164.623C229.824 164.623 230.207 164.775 230.524 165.078C230.846 165.376 231.007 165.734 231.007 166.15C231.007 166.572 230.846 166.934 230.524 167.237C230.207 167.535 229.824 167.685 229.374 167.685ZM238.232 180.213C237.115 180.213 236.153 179.976 235.348 179.503C234.548 179.024 233.933 178.362 233.502 177.514C233.076 176.667 232.863 175.691 232.863 174.588C232.863 173.471 233.078 172.49 233.509 171.648C233.945 170.8 234.563 170.14 235.363 169.666C236.163 169.188 237.115 168.949 238.218 168.949C239.17 168.949 240.003 169.122 240.718 169.467C241.433 169.813 241.999 170.298 242.415 170.923C242.832 171.548 243.062 172.282 243.104 173.125H240.249C240.169 172.58 239.955 172.142 239.61 171.811C239.269 171.475 238.822 171.307 238.268 171.307C237.799 171.307 237.389 171.435 237.039 171.69C236.693 171.941 236.423 172.308 236.229 172.791C236.035 173.274 235.938 173.859 235.938 174.545C235.938 175.241 236.033 175.833 236.222 176.321C236.416 176.809 236.688 177.18 237.039 177.436C237.389 177.692 237.799 177.819 238.268 177.819C238.613 177.819 238.923 177.748 239.198 177.606C239.477 177.464 239.707 177.258 239.887 176.989C240.072 176.714 240.192 176.385 240.249 176.001H243.104C243.057 176.835 242.83 177.569 242.422 178.203C242.02 178.833 241.464 179.325 240.753 179.68C240.043 180.035 239.203 180.213 238.232 180.213ZM248.067 165.454V180H245.041V165.454H248.067ZM255.462 180.213C254.34 180.213 253.374 179.986 252.564 179.531C251.759 179.072 251.139 178.423 250.704 177.585C250.268 176.742 250.05 175.746 250.05 174.595C250.05 173.473 250.268 172.488 250.704 171.641C251.139 170.793 251.752 170.132 252.543 169.659C253.339 169.185 254.271 168.949 255.341 168.949C256.061 168.949 256.731 169.065 257.351 169.297C257.976 169.524 258.521 169.867 258.985 170.327C259.454 170.786 259.818 171.364 260.079 172.06C260.339 172.751 260.469 173.56 260.469 174.489V175.319H251.258V173.444H257.621C257.621 173.009 257.527 172.623 257.337 172.287C257.148 171.951 256.885 171.688 256.549 171.498C256.217 171.304 255.831 171.207 255.391 171.207C254.932 171.207 254.525 171.314 254.17 171.527C253.819 171.735 253.545 172.017 253.346 172.372C253.147 172.722 253.045 173.113 253.04 173.544V175.327C253.04 175.866 253.14 176.333 253.339 176.726C253.542 177.119 253.829 177.422 254.198 177.635C254.567 177.848 255.005 177.954 255.512 177.954C255.848 177.954 256.156 177.907 256.435 177.812C256.714 177.718 256.954 177.576 257.152 177.386C257.351 177.197 257.503 176.965 257.607 176.69L260.405 176.875C260.263 177.547 259.972 178.134 259.532 178.636C259.096 179.133 258.533 179.522 257.841 179.801C257.155 180.076 256.362 180.213 255.462 180.213ZM271.52 172.202L268.75 172.372C268.703 172.135 268.601 171.922 268.445 171.733C268.289 171.539 268.083 171.385 267.827 171.271C267.576 171.153 267.276 171.094 266.925 171.094C266.456 171.094 266.061 171.193 265.739 171.392C265.417 171.586 265.256 171.846 265.256 172.173C265.256 172.434 265.36 172.654 265.569 172.834C265.777 173.014 266.134 173.158 266.641 173.267L268.616 173.665C269.676 173.882 270.467 174.233 270.988 174.716C271.509 175.199 271.769 175.833 271.769 176.619C271.769 177.334 271.558 177.962 271.137 178.501C270.72 179.041 270.147 179.462 269.418 179.766C268.694 180.064 267.858 180.213 266.911 180.213C265.467 180.213 264.316 179.912 263.459 179.311C262.607 178.705 262.107 177.881 261.961 176.839L264.937 176.683C265.027 177.123 265.244 177.46 265.59 177.692C265.936 177.919 266.378 178.033 266.918 178.033C267.448 178.033 267.875 177.931 268.196 177.727C268.523 177.519 268.689 177.251 268.694 176.925C268.689 176.65 268.573 176.425 268.346 176.25C268.118 176.07 267.768 175.933 267.295 175.838L265.405 175.462C264.34 175.248 263.547 174.879 263.026 174.354C262.51 173.828 262.252 173.158 262.252 172.344C262.252 171.643 262.441 171.039 262.82 170.533C263.204 170.026 263.741 169.635 264.432 169.361C265.128 169.086 265.943 168.949 266.875 168.949C268.253 168.949 269.338 169.24 270.128 169.822C270.924 170.405 271.388 171.198 271.52 172.202Z" fill="white"/>
<path d="M51.1663 9.94853L86.7499 35.4426L47.1634 52.3707L51.1663 9.94853Z" fill="#FFF966"/>
<path d="M101.915 0.632812L124.609 38.0645H81.5552L101.915 0.632812Z" fill="#FFF966"/>
<path d="M141.915 0.632812L164.609 38.0645H121.555L141.915 0.632812Z" fill="#FFF966"/>
<path d="M181.915 0.632812L204.609 38.0645H161.555L181.915 0.632812Z" fill="#FFF966"/>
<path d="M221.915 0.632812L244.609 38.0645H201.555L221.915 0.632812Z" fill="#FFF966"/>
<path d="M8.07795 57.5081L50.5437 48.1398L38.281 88.7952L8.07795 57.5081Z" fill="#FFF966"/>
<path d="M1 107.003L38.9513 85.7704L38.9513 128.235L1 107.003Z" fill="#FFF966"/>
<path d="M1 150.21L38.9513 128.978L38.9513 171.443L1 150.21Z" fill="#FFF966"/>
<path d="M6.82788 200.629L38.1515 170.463L48.9239 211.539L6.82788 200.629Z" fill="#FFF966"/>
<path d="M52.309 252.455L47.7905 209.203L86.8033 225.973L52.309 252.455Z" fill="#FFF966"/>
<path d="M104.301 262.511L83.0687 224.56H125.533L104.301 262.511Z" fill="#FFF966"/>
<path d="M145.301 262.511L124.069 224.56H166.533L145.301 262.511Z" fill="#FFF966"/>
<path d="M185.301 262.511L164.069 224.56H206.533L185.301 262.511Z" fill="#FFF966"/>
<path d="M225.301 262.511L204.069 224.56H246.533L225.301 262.511Z" fill="#FFF966"/>
<path d="M355.65 10.9486L320.066 36.4427L359.652 53.3708L355.65 10.9486Z" fill="#FFF966"/>
<path d="M304.901 0.632812L282.207 38.0645H325.261L304.901 0.632812Z" fill="#FFF966"/>
<path d="M264.901 0.632812L242.207 38.0645H285.261L264.901 0.632812Z" fill="#FFF966"/>
<path d="M399.738 58.5081L357.272 49.1398L369.535 89.7952L399.738 58.5081Z" fill="#FFF966"/>
<path d="M405.816 107.003L367.865 85.7704V128.235L405.816 107.003Z" fill="#FFF966"/>
<path d="M405.816 150.21L367.865 128.978V171.443L405.816 150.21Z" fill="#FFF966"/>
<path d="M401.186 199.821L368.888 170.702L359.471 212.109L401.186 199.821Z" fill="#FFF966"/>
<path d="M350.566 255.509L360.381 213.144L319.599 224.978L350.566 255.509Z" fill="#FFF966"/>
<path d="M302.515 262.511L323.747 224.56H281.283L302.515 262.511Z" fill="#FFF966"/>
<path d="M261.515 262.511L282.747 224.56H240.283L261.515 262.511Z" fill="#FFF966"/>
</svg>
