<svg viewBox="0 0 1440 896" fill="none" xmlns="http://www.w3.org/2000/svg" xmlns:xlink="http://www.w3.org/1999/xlink">
<g clip-path="url(#clip0_72_887)">
<path d="M-7 242L639.5 896.296H456.5H-7L-7 242Z" fill="url(#pattern0)"/>
<rect x="217" y="446.439" width="100" height="100" transform="rotate(-45 217 446.439)" fill="#6E07F3"/>
<rect x="301.853" y="361.586" width="100" height="100" transform="rotate(-45 301.853 361.586)" fill="#5BE9B9"/>
<rect x="386.706" y="276.734" width="100" height="100" transform="rotate(-45 386.706 276.734)" fill="#6E07F3"/>
<rect x="471.558" y="191.881" width="100" height="100" transform="rotate(-45 471.558 191.881)" fill="#5BE9B9"/>
<rect x="556.411" y="107.028" width="100" height="100" transform="rotate(-45 556.411 107.028)" fill="#6E07F3"/>
<rect x="641.264" y="22.1752" width="100" height="100" transform="rotate(-45 641.264 22.1752)" fill="#5BE9B9"/>
<rect x="301.853" y="531.292" width="100" height="100" transform="rotate(-45 301.853 531.292)" fill="#5BE9B9"/>
<rect x="386.706" y="446.439" width="100" height="100" transform="rotate(-45 386.706 446.439)" fill="#6E07F3"/>
<rect x="471.558" y="361.586" width="100" height="100" transform="rotate(-45 471.558 361.586)" fill="#5BE9B9"/>
<rect x="556.411" y="276.734" width="100" height="100" transform="rotate(-45 556.411 276.734)" fill="#6E07F3"/>
<rect x="641.264" y="191.881" width="100" height="100" transform="rotate(-45 641.264 191.881)" fill="#5BE9B9"/>
<rect x="726.117" y="107.028" width="100" height="100" transform="rotate(-45 726.117 107.028)" fill="#6E07F3"/>
<rect x="386.706" y="616.145" width="100" height="100" transform="rotate(-45 386.706 616.145)" fill="#6E07F3"/>
<rect x="471.558" y="531.292" width="100" height="100" transform="rotate(-45 471.558 531.292)" fill="#5BE9B9"/>
<rect x="556.411" y="446.439" width="220" height="220" transform="rotate(-45 556.411 446.439)" fill="url(#pattern1)"/>
<rect x="726.117" y="276.734" width="100" height="100" transform="rotate(-45 726.117 276.734)" fill="#6E07F3"/>
<rect x="810.97" y="191.881" width="100" height="100" transform="rotate(-45 810.97 191.881)" fill="#5BE9B9"/>
<rect x="556.411" y="785.85" width="100" height="100" transform="rotate(-45 556.411 785.85)" fill="#6E07F3"/>
<rect x="641.264" y="700.998" width="100" height="100" transform="rotate(-45 641.264 700.998)" fill="#5BE9B9"/>
<rect x="726.117" y="616.145" width="100" height="100" transform="rotate(-45 726.117 616.145)" fill="#6E07F3"/>
<rect x="810.97" y="531.292" width="100" height="100" transform="rotate(-45 810.97 531.292)" fill="#5BE9B9"/>
<rect x="895.823" y="446.439" width="100" height="100" transform="rotate(-45 895.823 446.439)" fill="#6E07F3"/>
<rect x="980.675" y="361.586" width="100" height="100" transform="rotate(-45 980.675 361.586)" fill="#5BE9B9"/>
<rect x="641.264" y="870.703" width="100" height="100" transform="rotate(-45 641.264 870.703)" fill="#5BE9B9"/>
<rect x="726.117" y="785.85" width="100" height="100" transform="rotate(-45 726.117 785.85)" fill="#6E07F3"/>
<rect x="810.97" y="700.998" width="100" height="100" transform="rotate(-45 810.97 700.998)" fill="#5BE9B9"/>
<rect x="895.823" y="616.145" width="100" height="100" transform="rotate(-45 895.823 616.145)" fill="#6E07F3"/>
<rect x="980.675" y="531.292" width="100" height="100" transform="rotate(-45 980.675 531.292)" fill="#5BE9B9"/>
<rect x="1065.53" y="446.439" width="100" height="100" transform="rotate(-45 1065.53 446.439)" fill="#6E07F3"/>
<rect x="810" y="360.711" width="100" height="100" transform="rotate(-45 810 360.711)" fill="#5BE9B9"/>
<rect x="895" y="276.711" width="100" height="100" transform="rotate(-45 895 276.711)" fill="#6E07F3"/>
<rect x="470" y="700.711" width="100" height="100" transform="rotate(-45 470 700.711)" fill="#D9D9D9"/>
<rect x="470" y="700.711" width="100" height="100" transform="rotate(-45 470 700.711)" fill="#5BE9B9"/>
<rect x="555" y="616.711" width="100" height="100" transform="rotate(-45 555 616.711)" fill="#6E07F3"/>
<rect x="134" y="361.711" width="100" height="100" transform="rotate(-45 134 361.711)" fill="#5BE9B9"/>
<rect x="219" y="277.711" width="100" height="100" transform="rotate(-45 219 277.711)" fill="#6E07F3"/>
<rect x="1065" y="614.711" width="100" height="100" transform="rotate(-45 1065 614.711)" fill="#6E07F3"/>
<rect x="1150" y="530.711" width="100" height="100" transform="rotate(-45 1150 530.711)" fill="#5BE9B9"/>
<rect x="1152" y="702.711" width="100" height="100" transform="rotate(-45 1152 702.711)" fill="#5BE9B9"/>
<rect x="1237" y="618.711" width="100" height="100" transform="rotate(-45 1237 618.711)" fill="#6E07F3"/>
<rect x="1239" y="791.711" width="100" height="100" transform="rotate(-45 1239 791.711)" fill="#6E07F3"/>
<rect x="1324" y="707.711" width="100" height="100" transform="rotate(-45 1324 707.711)" fill="#5BE9B9"/>
<rect x="1321" y="879.711" width="100" height="100" transform="rotate(-45 1321 879.711)" fill="#5BE9B9"/>
<rect x="-120" y="100.711" width="100" height="100" transform="rotate(-45 -120 100.711)" fill="#6E07F3"/>
<rect x="-35" y="16.7107" width="100" height="100" transform="rotate(-45 -35 16.7107)" fill="#5BE9B9"/>
<rect x="-33" y="189.711" width="100" height="100" transform="rotate(-45 -33 189.711)" fill="#5BE9B9"/>
<rect x="52" y="105.711" width="100" height="100" transform="rotate(-45 52 105.711)" fill="#6E07F3"/>
<rect x="49" y="277.711" width="100" height="100" transform="rotate(-45 49 277.711)" fill="#6E07F3"/>
<rect x="134" y="193.711" width="100" height="100" transform="rotate(-45 134 193.711)" fill="#5BE9B9"/>
<rect x="1406" y="795.711" width="100" height="100" transform="rotate(-45 1406 795.711)" fill="#6E07F3"/>
<path d="M781 0H1440V597V654.5L781 0Z" fill="url(#pattern2)"/>
<path d="M1050.5 627L1321 896H1050.5H781L1050.5 627Z" fill="url(#pattern3)"/>
<path d="M372.5 270L643 1H372.5H103L372.5 270Z" fill="url(#pattern4)"/>
</g>
<defs>
<pattern id="pattern0" patternContentUnits="objectBoundingBox" width="1" height="1">
<use xlink:href="#image0_72_887" transform="matrix(0.000365735 0 0 0.00039917 -0.0973116 -0.0907877)"/>
</pattern>
<pattern id="pattern1" patternContentUnits="objectBoundingBox" width="1" height="1">
<use xlink:href="#image1_72_887" transform="translate(0.530904 -0.2061169) scale(0.000345068) rotate(44.5264)"/>
</pattern>
<pattern id="pattern2" patternContentUnits="objectBoundingBox" width="1" height="1">
<use xlink:href="#image2_72_887" transform="matrix(0.00032843 0 0 0.000330688 -0.0384286 -0.00996289)"/>
</pattern>
<pattern id="pattern3" patternContentUnits="objectBoundingBox" width="1" height="1">
<use xlink:href="#image3_72_887" transform="matrix(0.000248247 0 0 0.000930622 0.00705871 -1.46476)"/>
</pattern>
<pattern id="pattern4" patternContentUnits="objectBoundingBox" width="1" height="1">
<use xlink:href="#image4_72_887" transform="matrix(0.000251738 4.91967e-06 -2.35751e-06 0.000486127 -0.00551062 -0.0738877)"/>
</pattern>
<clipPath id="clip0_72_887">
<rect width="1440" height="896" fill="white"/>
</clipPath>
<image id="image0_72_887" width="3024" height="4032" xlink:href="/images/image2.jpg"/>
<image id="image1_72_887" width="3024" height="3024" xlink:href="/images/KSB_Logo.png"/>
<image id="image2_72_887" width="4032" height="3024" xlink:href="/images/image1.jpg"/>
<image id="image3_72_887" width="4032" height="3024" xlink:href="/images/image4.jpg"/>
<image id="image4_72_887" width="4032" height="3024" xlink:href="/images/image3.jpg"/>
</defs>
</svg>
