<svg viewBox="0 0 360 800" fill="none" xmlns="http://www.w3.org/2000/svg" xmlns:xlink="http://www.w3.org/1999/xlink">
<g clip-path="url(#clip0_102_1211)">
<rect width="360" height="800" fill="white"/>
<rect x="-29" y="402.249" width="40.2582" height="40.2582" transform="rotate(-45 -29 402.249)" fill="#6E07F3"/>
<rect x="6.53809" y="366.711" width="40.2582" height="40.2582" transform="rotate(-45 6.53809 366.711)" fill="#5BE9B9"/>
<rect x="42.0757" y="331.173" width="40.2582" height="40.2582" transform="rotate(-45 42.0757 331.173)" fill="#6E07F3"/>
<rect x="77.6138" y="295.635" width="40.2582" height="40.2582" transform="rotate(-45 77.6138 295.635)" fill="#5BE9B9"/>
<rect x="113.151" y="260.097" width="40.2582" height="40.2582" transform="rotate(-45 113.151 260.097)" fill="#6E07F3"/>
<rect x="148.689" y="224.559" width="40.2582" height="40.2582" transform="rotate(-45 148.689 224.559)" fill="#5BE9B9"/>
<rect x="6.53809" y="437.787" width="40.2582" height="40.2582" transform="rotate(-45 6.53809 437.787)" fill="#5BE9B9"/>
<rect x="42.0757" y="402.249" width="40.2582" height="40.2582" transform="rotate(-45 42.0757 402.249)" fill="#6E07F3"/>
<rect x="77.6138" y="366.711" width="40.2582" height="40.2582" transform="rotate(-45 77.6138 366.711)" fill="#5BE9B9"/>
<rect x="113.151" y="331.173" width="40.2582" height="40.2582" transform="rotate(-45 113.151 331.173)" fill="#6E07F3"/>
<rect x="148.689" y="295.635" width="40.2582" height="40.2582" transform="rotate(-45 148.689 295.635)" fill="#5BE9B9"/>
<rect x="184.228" y="260.097" width="40.2582" height="40.2582" transform="rotate(-45 184.228 260.097)" fill="#6E07F3"/>
<rect x="42.0757" y="473.325" width="40.2582" height="40.2582" transform="rotate(-45 42.0757 473.325)" fill="#6E07F3"/>
<rect x="77.6138" y="437.787" width="40.2582" height="40.2582" transform="rotate(-45 77.6138 437.787)" fill="#5BE9B9"/>
<rect x="113.151" y="402.249" width="90" height="90" transform="rotate(-45 113.151 402.249)" fill="url(#pattern0)"/>
<rect x="183.862" y="331.538" width="40.2582" height="40.2582" transform="rotate(-45 183.862 331.538)" fill="#6E07F3"/>
<rect x="219.4" y="296" width="40.2582" height="40.2582" transform="rotate(-45 219.4 296)" fill="#5BE9B9"/>
<rect x="112.787" y="544.035" width="40.2582" height="40.2582" transform="rotate(-45 112.787 544.035)" fill="#6E07F3"/>
<rect x="148.324" y="508.497" width="40.2582" height="40.2582" transform="rotate(-45 148.324 508.497)" fill="#5BE9B9"/>
<rect x="183.862" y="472.96" width="40.2582" height="40.2582" transform="rotate(-45 183.862 472.96)" fill="#6E07F3"/>
<rect x="219.4" y="437.422" width="40.2582" height="40.2582" transform="rotate(-45 219.4 437.422)" fill="#5BE9B9"/>
<rect x="254.938" y="401.884" width="40.2582" height="40.2582" transform="rotate(-45 254.938 401.884)" fill="#6E07F3"/>
<rect x="290.476" y="366.346" width="40.2582" height="40.2582" transform="rotate(-45 290.476 366.346)" fill="#5BE9B9"/>
<rect x="148.324" y="579.573" width="40.2582" height="40.2582" transform="rotate(-45 148.324 579.573)" fill="#5BE9B9"/>
<rect x="183.862" y="544.035" width="40.2582" height="40.2582" transform="rotate(-45 183.862 544.035)" fill="#6E07F3"/>
<rect x="219.4" y="508.497" width="40.2582" height="40.2582" transform="rotate(-45 219.4 508.497)" fill="#5BE9B9"/>
<rect x="254.938" y="472.96" width="40.2582" height="40.2582" transform="rotate(-45 254.938 472.96)" fill="#6E07F3"/>
<rect x="290.476" y="437.422" width="40.2582" height="40.2582" transform="rotate(-45 290.476 437.422)" fill="#5BE9B9"/>
<rect x="326.014" y="401.884" width="40.2582" height="40.2582" transform="rotate(-45 326.014 401.884)" fill="#6E07F3"/>
<rect x="220.035" y="367.275" width="40.26" height="40.26" transform="rotate(-45 220.035 367.275)" fill="#5BE9B9"/>
<rect x="255.544" y="331.278" width="40.26" height="40.26" transform="rotate(-45 255.544 331.278)" fill="#6E07F3"/>
<rect x="78" y="509.31" width="40.26" height="40.26" transform="rotate(-45 78 509.31)" fill="#5BE9B9"/>
<rect x="113.509" y="473.313" width="40.26" height="40.26" transform="rotate(-45 113.509 473.313)" fill="#6E07F3"/>
<path d="M-1 445L350 800H250.645H-1L-1 445Z" fill="url(#pattern1)"/>
<path d="M-9 0H360V334.758V367L-9 0Z" fill="url(#pattern2)"/>
<path d="M182 613.5L360 437V789L182 613.5Z" fill="url(#pattern3)"/>
<path d="M0 20L169 192.5L0 353V20Z" fill="url(#pattern4)"/>
</g>
<defs>
<pattern id="pattern0" patternContentUnits="objectBoundingBox" width="1" height="1">
<use xlink:href="#image0_102_1211" transform="translate(0.430904 -0.0961169) scale(0.000245068) rotate(44.5264)"/>
</pattern>
<pattern id="pattern1" patternContentUnits="objectBoundingBox" width="1" height="1">
<use xlink:href="#image1_102_1211" transform="matrix(0.000365735 0 0 0.00039917 -0.0973116 -0.0907877)"/>
</pattern>
<pattern id="pattern2" patternContentUnits="objectBoundingBox" width="1" height="1">
<use xlink:href="#image2_102_1211" transform="matrix(0.00032843 0 0 0.000330688 -0.0384286 -0.00996289)"/>
</pattern>
<pattern id="pattern3" patternContentUnits="objectBoundingBox" width="1" height="1">
<use xlink:href="#image3_102_1211" transform="matrix(0.00060586 0 0 0.000306373 -0.241573 0)"/>
</pattern>
<pattern id="pattern4" patternContentUnits="objectBoundingBox" width="1" height="1">
<use xlink:href="#image4_102_1211" transform="matrix(0.000651592 0 0 0.000330688 -0.976986 0)"/>
</pattern>
<clipPath id="clip0_102_1211">
<rect width="360" height="800" fill="white"/>
</clipPath>
<image id="image0_102_1211" width="4032" height="3024" xlink:href="/images/KSB_Logo.webp"/>
<image id="image1_102_1211" width="3024" height="4032" xlink:href="/images/image2.jpg"/>
<image id="image2_102_1211" width="4032" height="3024" xlink:href="/images/image1.jpg"/>
<image id="image3_102_1211" width="2448" height="3264" xlink:href="/images/image5.jpg"/>
<image id="image4_102_1211" width="4032" height="3024" xlink:href="/images/image3.jpg"/>
</defs>
</svg>
